<svg version="1" xmlns="http://www.w3.org/2000/svg" width="1096" height="1096" viewBox="0 0 822.000000 822.000000"><path d="M0 248.7C0 373.7.3 476 .6 476c.5 0 62.8-35.7 69-39.5l2.1-1.3-.1-206.9-.1-206.8H0v227.2z"/><path d="M161.2 202.2c-.1 99.5.1 180.8.3 180.8.4 0 7-3.5 12.5-6.7 55-31.7 60.3-34.7 80.5-46.3 9.9-5.6 22-12.7 26.8-15.6 4.9-3 9.1-5.4 9.3-5.4.2 0 5.5-2.9 11.7-6.5l11.2-6.5.2-58.8c.1-32.3.2-59.2.2-59.7.1-1.2 216.3-1.3 223.1-.1 7 1.3 7 1.3 15.6 3.5 15.7 4 31 10.9 46.4 20.8 10.3 6.6 13.6 9.6 16.1 14.5 2.3 4.5 2.4 9.2.3 15.5-2.1 6.1-9.1 16.1-14.1 19.8-2.1 1.6-4.2 3.3-4.8 3.8-.8.7-22.8 13.4-52.6 30.6-2.5 1.4-11.2 6.4-19.3 11.1-8.1 4.7-16.6 9.6-18.9 10.9-2.3 1.3-22.9 13.2-45.7 26.4-55.4 32.1-66.4 38.4-73.5 42.5-3.3 1.9-7.5 4.3-9.2 5.3-6 3.5-10.8 6.2-15.3 8.7-2.5 1.3-4.9 2.8-5.5 3.2-.8.7-11.3 6.7-38 22-1.6 1-11.8 6.8-22.5 13s-21.1 12.2-23 13.2c-1.9 1.1-7.1 4.1-11.5 6.7-4.4 2.6-14.5 8.5-22.5 13.1s-19.7 11.3-26 15c-6.3 3.7-42.5 24.7-80.5 46.6-37.9 21.8-77.5 44.7-88 50.7-10.4 6.1-20.3 11.8-22 12.7C9.4 594.5 1.4 599.3.7 599.9c-.4.4-.6 41.5-.5 91.4L.5 782l6.3-4c3.4-2.2 6.5-4 6.7-4 .2 0 7-3.9 15.2-8.6 8.1-4.8 16.8-9.8 19.3-11.2 4.6-2.5 11.8-6.7 36.4-21.1 7.6-4.5 14-8.1 14.1-8.1.2 0 3.8-2 7.9-4.5 4.2-2.5 8.1-4.5 8.6-4.5.6 0 1-.5 1-1 0-.6.4-1 .9-1s5.5-2.7 11.1-6 10.3-6 10.5-6c.2 0 5.6-3.2 12.1-7 6.4-3.9 11.8-7 12-7 .2 0 2.5-1.3 5.1-2.8 2.7-1.6 12.5-7.3 21.8-12.7 9.4-5.4 17.2-10.1 17.5-10.5.3-.3 7.9-4.9 17-10.1 9.1-5.3 28.9-16.7 44-25.4 15.1-8.7 38.2-22.1 51.3-29.7 13.1-7.6 24.1-13.8 24.3-13.8.3 0 1.7-.9 3.2-1.9 1.5-1 16.4-9.7 33.2-19.4 16.8-9.6 32.3-18.5 34.6-19.8 2.3-1.3 13.9-8 25.8-14.9s27.3-15.8 34.4-19.9c7-4 14.3-8.2 16.2-9.3 1.9-1.1 11.8-6.9 22-12.7 10.2-5.9 30.9-17.9 46-26.6 15.1-8.6 29.2-16.8 31.2-18.1 2.1-1.3 3.9-2.4 4.1-2.4.3 0 5.6-3 11.8-6.6 6.3-3.7 12.8-7.4 14.4-8.4 1.7-.9 10-5.8 18.5-10.7 8.5-4.9 24.7-14.3 36-20.8s23.2-13.2 26.5-14.9c9.6-5 14.1-8.2 21.7-15.4 17.8-16.9 38.1-47.5 46.1-69.7 3.1-8.7 7.3-26.2 8.2-33.6.3-3.1.8-6.7 1.1-8 .8-3.6.7-32.5 0-39.9-1.1-10.4-3-22-5.1-32-.3-1.4-.7-3.4-1-4.5-2.5-12-9.3-32.2-13.2-39.3-13.8-25.3-35.9-49.1-61.6-66.6-3.8-2.5-7-4.6-7.2-4.6-.1 0-3.4-1.9-7.1-4.2-16.6-10-51.6-23.7-72.4-28.3-10.4-2.2-22.2-4.6-25.5-5-2.2-.3-4.9-.7-6.1-.9-1.2-.2-4.4-.7-7.2-1-2.9-.3-7.6-.9-10.4-1.3-2.9-.3-94.2-.7-203-.7l-197.6-.1v180.7zM746.9 451.1c-9.5 5.5-20.5 11.9-24.4 14.2-3.8 2.3-8.7 5.1-10.7 6.2-2.1 1.1-8.4 4.7-14 8-5.7 3.3-11 6.4-11.8 6.8-.8.4-2.4 1.3-3.5 2s-7.1 4.1-13.3 7.7c-6.2 3.6-12.8 7.3-14.5 8.4-1.8 1-7.7 4.4-13.2 7.6-5.5 3.1-24.6 14.2-42.5 24.5s-34.3 19.8-36.5 21c-2.2 1.3-8 4.6-13 7.5-4.9 2.9-10.6 6.2-12.5 7.2-4.9 2.9-19.1 11.1-21.5 12.5-1.1.7-2.7 1.6-3.5 2-.8.4-5.8 3.2-11 6.3-5.2 3.1-10.2 5.9-11 6.3-.8.4-2.8 1.5-4.5 2.6-2.7 1.6-43.9 25.5-52.5 30.4-5.8 3.3-52.8 30.4-71.5 41.2-5.5 3.2-21.5 12.4-35.5 20.5-36.4 20.9-134.6 77.5-165.5 95.5-4.9 2.8-11.1 6.4-13.7 7.9-2.7 1.5-4.8 2.8-4.8 2.9 0 .1 98.2.2 218.3.1 192.2 0 231.2-.3 241.7-1.9 1.4-.2 5-.7 8-1 8.5-1 17.8-2.4 26-4 4.1-.9 8.6-1.7 9.9-2 6.4-1.2 19.9-5 31.6-8.9C753.9 757.1 807.4 699.7 818 632c.6-4.1 1.3-8.6 1.6-10 2.2-13.2 2.5-49.7.5-62-.7-4.1-1.5-8.9-1.7-10.5-.8-4.9-4.3-19.6-5.9-24.6-.9-2.5-1.7-5.4-1.9-6.5-1.8-9.1-14.3-36.4-22.4-48.9-7.9-12.2-21.1-28.5-23.1-28.5-.4 0-8.6 4.5-18.2 10.1z"/></svg>